<svg width="140" height="218" viewBox="0 0 140 218" fill="none" xmlns="http://www.w3.org/2000/svg">
<path fill-rule="evenodd" clip-rule="evenodd" d="M6.49054 2.55447C6.76582 3.95982 8.29377 7.31932 9.88542 10.0204C11.5613 12.8631 12.6104 15.456 12.3776 16.1768C12.0899 17.0675 12.166 17.159 12.647 16.497C13.1441 15.8139 14.1647 16.5681 16.5603 19.3868C18.3423 21.4847 19.7187 23.4519 19.6176 23.7597C19.5173 24.0667 19.8468 24.2359 20.3498 24.1364C20.8535 24.0362 21.1742 24.3876 21.0636 24.916C20.9531 25.4452 21.1756 25.6862 21.5578 25.4518C21.94 25.2173 23.7205 26.2546 25.5135 27.7565C27.3072 29.2591 31.1268 32.0612 34.0018 33.9841C36.8769 35.907 39.0528 37.7624 38.8376 38.108C38.6223 38.4535 38.8317 38.9718 39.3032 39.2607C39.8384 39.5888 39.9643 39.4719 39.6378 38.9486C38.8485 37.6818 40.0756 37.9715 42.1307 39.5365C43.1374 40.3031 43.9683 41.3578 43.9771 41.8798C43.9866 42.4017 44.5013 42.7465 45.1214 42.6463C46.2372 42.4663 50.3254 46.1176 50.3291 47.2979C50.3298 47.634 50.6058 47.8351 50.9426 47.7437C51.5334 47.584 54.6816 50.6524 58.5538 55.1631C61.2415 58.2933 64.8451 65.2714 66.0055 69.5913C67.0561 73.5032 67.4185 84.8941 66.474 84.3199C66.1724 84.137 65.9037 85.0197 65.8774 86.2821C65.8261 88.7422 61.3777 98.812 60.6573 98.0977C60.4193 97.8625 60.6177 97.2012 61.0973 96.6277C61.7723 95.8212 61.7708 95.4641 61.0885 95.0467C60.5299 94.704 60.3988 94.8137 60.7305 95.3443C61.0175 95.8052 60.986 96.1813 60.6602 96.1798C60.3344 96.1784 59.4331 94.6271 58.6578 92.7318C57.8825 90.8371 56.5083 88.3066 55.6041 87.1089C54.6999 85.9111 53.8514 84.4412 53.7196 83.8423C53.5871 83.2434 52.8798 82.3114 52.1484 81.7706C51.4163 81.2305 50.9931 80.3362 51.2069 79.783C51.4207 79.2306 51.1959 78.856 50.7069 78.9511C50.1373 79.0622 49.8327 78.1904 49.8591 76.523C49.8847 74.902 49.5545 73.9213 48.9834 73.9213C48.3069 73.9213 48.2637 74.2857 48.8187 75.3143C49.2323 76.0809 49.4147 76.862 49.225 77.0507C48.7462 77.5247 42.4528 69.9992 42.6798 69.224C42.7801 68.8799 42.4506 68.6803 41.9477 68.7797C41.4439 68.8799 41.1233 68.5286 41.2338 68.0001C41.3444 67.4709 41.1335 67.2226 40.766 67.4484C40.3985 67.6734 39.2666 66.7994 38.2511 65.5059C37.2364 64.2123 34.0677 60.7577 31.2102 57.8294C28.3527 54.9011 26.2324 52.1557 26.4982 51.7282C26.7691 51.2941 26.6403 51.1619 26.2054 51.4276C25.7785 51.6897 24.0807 50.3068 22.432 48.3541C19.562 44.9554 18.66 43.357 20.1162 44.2491C20.4911 44.4792 20.994 44.3522 21.2342 43.9675C21.4758 43.5798 21.0219 43.3911 20.2165 43.545C19.1959 43.7395 18.3174 43.1087 17.2682 41.4254C15.331 38.317 15.3749 37.2383 17.3444 39.5619L18.8826 41.3767L17.7881 39.5619C17.1862 38.5638 16.2725 37.7472 15.7586 37.7472C14.8288 37.7472 12.6917 32.8183 13.2649 31.9958C13.4304 31.7584 13.2122 31.855 12.781 32.21C12.2282 32.6637 12.2217 33.6654 12.759 35.5956C13.1793 37.1033 13.3191 38.6633 13.0709 39.0618C12.7978 39.4988 12.9962 39.5554 13.571 39.2026C14.3053 38.7526 14.41 39.1003 14.0278 40.7241C13.7137 42.0591 13.7738 42.4714 14.1904 41.8522C14.6809 41.1241 14.9964 41.3999 15.4313 42.941C15.752 44.0771 15.9328 45.3329 15.8333 45.7322C15.7337 46.1314 15.8882 46.2236 16.1774 45.9369C16.4665 45.6501 17.8005 47.2225 19.141 49.4307C20.4823 51.6381 22.9049 55.0956 24.5244 57.1129C26.1446 59.1302 27.2589 61.1199 26.9997 61.5352C26.7413 61.9497 26.8797 62.0745 27.308 61.8125C27.9962 61.3907 28.8183 62.1827 32.9695 67.2662C33.5128 67.9319 33.8195 68.6665 33.6511 68.8995C33.4827 69.1332 33.5655 69.1601 33.8349 68.9597C34.5268 68.4444 37.0058 70.8035 37.0058 71.9773C37.0058 72.5145 37.3037 72.9537 37.6683 72.9537C38.5022 72.9537 45.7913 82.6416 45.7913 83.7494C45.7913 84.2002 46.1142 84.5682 46.5088 84.5682C46.9042 84.5682 47.1128 85.5402 46.973 86.7285C46.831 87.9422 47.0191 88.7051 47.4035 88.47C47.7798 88.2398 47.9109 87.5938 47.6949 87.0356C46.7702 84.6481 48.0756 86.2908 49.4095 89.1951C51.1813 93.0504 52.5848 98.9637 52.054 100.336C51.8402 100.888 51.991 101.14 52.3886 100.896C52.7869 100.652 53.1126 100.799 53.1126 101.221C53.1126 103.173 41.3004 100.899 34.2046 97.5801C31.517 96.3235 29.1537 95.0859 28.9523 94.8304C28.751 94.5748 27.6374 93.8801 26.4777 93.2863C24.5112 92.2795 15.9218 84.2974 13.6749 81.388C12.9377 80.4334 12.8894 79.8788 13.4919 79.2814C13.9414 78.8357 14.3097 78.1468 14.3097 77.7512C14.3097 77.3556 13.8704 77.6271 13.3338 78.3552C12.434 79.5747 12.188 79.4005 10.1922 76.1346C5.60758 68.6331 0.496569 53.6605 1.37879 50.3155C1.57061 49.5904 1.47251 49.1526 1.16208 49.3428C0.136367 49.9715 -0.414937 34.996 0.375033 27.9474C1.22138 20.3878 3.47488 8.39076 5.01089 3.26658L5.99048 0L6.49054 2.55447ZM4.93328 6.55204C5.15878 6.77562 5.56805 6.37274 5.84333 5.657C6.24014 4.62258 6.15668 4.5391 5.43334 5.25049C4.93256 5.74338 4.70779 6.32919 4.93328 6.55204ZM9.49886 12.6932C9.49886 13.5454 9.76755 13.8677 10.1563 13.4823C10.518 13.1237 10.5927 12.4747 10.3225 12.0406C9.6343 10.9365 9.49886 11.0432 9.49886 12.6932ZM16.2367 24.8885C16.0412 25.2021 16.4922 25.4583 17.2382 25.4583C17.9843 25.4583 18.4353 25.2021 18.2398 24.8885C18.0436 24.5749 17.5933 24.3179 17.2382 24.3179C16.8831 24.3179 16.4329 24.5749 16.2367 24.8885ZM31.1487 34.04C31.1487 34.1968 31.6597 34.5198 32.285 34.7579C32.9366 35.0054 33.2302 34.8835 32.9739 34.4726C32.5442 33.7823 31.1487 33.452 31.1487 34.04ZM18.4499 38.5043C18.6886 39.1206 19.0407 39.469 19.2325 39.2788C19.4244 39.0887 19.3643 38.5842 19.0986 38.1588C18.3767 37.0002 17.955 37.2253 18.4499 38.5043ZM17.4703 49.8611C17.7039 50.4397 17.8774 50.2676 17.9125 49.4219C17.944 48.6568 17.7712 48.2286 17.5281 48.4696C17.2851 48.7106 17.2587 49.337 17.4703 49.8611ZM52.0057 52.4519C53.2598 53.5908 53.3052 53.5937 52.4603 52.4787C51.9442 51.7971 51.7641 50.8171 52.0591 50.301C52.4911 49.5446 52.4025 49.5395 51.6045 50.2742C50.7764 51.0364 50.8423 51.395 52.0057 52.4519ZM16.9585 53.7549C16.7089 54.4009 16.8319 54.692 17.2463 54.438C17.6446 54.1941 17.9703 53.6874 17.9703 53.3114C17.9703 52.2675 17.4454 52.4976 16.9585 53.7549ZM21.3045 56.0546C21.0387 56.7405 21.0592 57.0665 21.3499 56.7783C21.6405 56.4901 22.5411 56.8269 23.3515 57.5267C24.8231 58.797 24.8231 58.7963 23.4108 56.8248C21.7159 54.4597 21.896 54.5258 21.3045 56.0546ZM59.2838 59.0402C59.2838 59.7727 59.6894 60.3715 60.185 60.3715C60.833 60.3715 60.8842 59.9962 60.3688 59.0402C59.9735 58.3085 59.5679 57.7096 59.4668 57.7096C59.3658 57.7096 59.2838 58.3085 59.2838 59.0402ZM56.5207 58.8297C56.7594 59.446 57.1116 59.7944 57.3034 59.6043C57.4952 59.4141 57.4352 58.9096 57.1694 58.4842C56.4475 57.3256 56.0258 57.5507 56.5207 58.8297ZM27.4881 63.0414C27.4881 63.1793 28.229 63.914 29.1354 64.6747L30.7826 66.0576L29.3879 64.4243C28.0774 62.8897 27.4881 62.4607 27.4881 63.0414ZM9.66432 74.0738C9.90299 74.6901 10.2551 75.0385 10.447 74.8483C10.6388 74.6581 10.5788 74.1536 10.313 73.7282C9.59111 72.5697 9.1694 72.7947 9.66432 74.0738ZM139.853 82.0275C139.52 91.0622 138.752 95.8147 136.475 102.948C135.343 106.496 134.698 107.627 134.202 106.941C133.692 106.235 133.619 106.321 133.926 107.266C134.447 108.867 132.201 113.702 131.217 113.099C130.811 112.85 130.722 113.023 131.015 113.492C131.913 114.934 130.726 115.959 129.372 114.91C128.297 114.076 128.267 114.108 129.114 115.183C129.928 116.213 129.828 116.678 128.456 118.243C127.565 119.258 126.507 119.886 126.102 119.638C125.669 119.373 125.597 119.555 125.927 120.085C126.266 120.63 125.683 121.812 124.438 123.1C122.487 125.12 120.609 126.031 121.567 124.493C122.303 123.311 121.463 123.666 120.375 124.995C119.693 125.83 119.664 126.049 120.286 125.679C120.789 125.379 121.201 125.294 121.201 125.49C121.201 126.028 117.216 128.73 116.042 128.986C115.476 129.111 114.546 129.643 113.975 130.171C113.354 130.745 112.17 130.955 111.029 130.694C109.793 130.411 109.465 130.484 110.097 130.903C111.604 131.902 105.344 133.204 99.0349 133.204C96.0587 133.204 93.4267 133.009 93.1866 132.77C92.5306 132.12 93.4326 130.247 94.1801 130.705C94.5359 130.923 94.6589 130.667 94.4532 130.136C94.2482 129.604 94.6055 128.526 95.2483 127.739C95.8911 126.952 96.1766 126.767 95.8838 127.328C95.5294 128.004 95.6385 128.17 96.2074 127.821C96.6789 127.532 96.8714 126.987 96.6357 126.609C95.5338 124.841 107.637 114.733 109.96 115.482C110.972 115.808 111.064 115.74 110.324 115.215C109.108 114.354 110.498 113.241 111.797 114.036C112.287 114.338 112.444 114.237 112.17 113.798C111.731 113.094 118.424 107.525 120.792 106.624C121.375 106.403 123.225 104.456 124.904 102.298C126.582 100.141 128.244 98.5528 128.597 98.7691C128.949 98.9847 129.015 98.5731 128.743 97.8538C128.327 96.7533 128.426 96.6887 129.368 97.4465C130.519 98.3742 131.459 97.9924 131.44 96.6059C131.433 96.174 131.145 96.2633 130.799 96.8048C130.393 97.44 130.003 97.522 129.7 97.0364C129.442 96.6219 129.565 96.0782 129.975 95.827C131.091 95.1432 130.87 94.005 129.62 94.005C129.016 94.005 128.522 94.5494 128.522 95.2151C128.522 95.88 128.305 96.2096 128.04 95.9468C127.432 95.3436 125.493 96.8847 125.945 97.6113C126.365 98.2849 123.171 101.317 121.829 101.519C121.282 101.601 120.423 101.923 119.92 102.235C119.416 102.547 118.592 102.556 118.089 102.256C117.369 101.827 117.371 101.952 118.098 102.843C118.851 103.766 118.818 104.144 117.915 104.886C117.025 105.619 116.558 105.609 115.527 104.836C114.445 104.024 114.385 104.031 115.144 104.875C115.883 105.699 114.88 106.631 109.487 110.13C105.882 112.468 102.742 114.357 102.509 114.325C102.277 114.293 101.483 115.005 100.745 115.909C99.6125 117.296 99.2259 117.403 98.2522 116.602C97.258 115.783 97.1408 115.864 97.3985 117.192C97.6211 118.338 96.9131 119.294 94.6238 120.938C92.9325 122.153 91.5495 123.375 91.5495 123.655C91.5495 123.935 90.6725 125.275 89.6006 126.633L87.6509 129.103L87.1348 125.687C86.2877 120.09 87.0491 114.129 89.1072 110.241C90.1358 108.297 91.3775 106.798 91.8666 106.908C92.3564 107.018 92.5965 106.851 92.401 106.537C91.5547 105.179 100.096 97.9038 101.515 98.7735C102.059 99.1067 102.2 99.0029 101.886 98.4991C101.344 97.6294 106.571 94.9806 116.53 91.0789C119.703 89.8354 123.736 88.0279 125.491 87.0624C127.247 86.097 129.027 85.5177 129.448 85.7754C129.869 86.0338 130 85.9032 129.74 85.4858C129.032 84.3504 132.894 82.037 136.027 81.7205C136.328 81.6893 136.576 81.298 136.576 80.8501C136.576 80.2868 136.236 80.3144 135.477 80.9387C133.792 82.3251 134.174 81.2123 136.027 79.338C136.933 78.4219 138.23 76.8554 138.91 75.8573C140.101 74.1115 140.137 74.3445 139.853 82.0275ZM65.7741 79.6683C65.9491 80.567 66.0919 79.8317 66.0919 78.035C66.0919 76.2384 65.9491 75.5031 65.7741 76.4017C65.5999 77.3004 65.5999 78.7697 65.7741 79.6683ZM53.9099 79.6081C54.3053 80.3398 54.7109 80.9387 54.8119 80.9387C54.913 80.9387 54.995 80.3398 54.995 79.6081C54.995 78.8756 54.5894 78.2768 54.0937 78.2768C53.4458 78.2768 53.3945 78.6521 53.9099 79.6081ZM40.3867 79.8876C40.1371 80.5336 40.2601 80.8247 40.6745 80.5706C41.0728 80.3267 41.3986 79.82 41.3986 79.444C41.3986 78.4002 40.8736 78.6303 40.3867 79.8876ZM17.2382 84.0789C17.2382 84.2089 18.1446 85.1068 19.2516 86.0752L21.2649 87.8348L19.4903 85.8385C17.8312 83.973 17.2382 83.5091 17.2382 84.0789ZM58.2603 90.7384C58.2603 91.1377 58.5795 90.9743 58.9697 90.3755C59.3599 89.7766 59.6791 88.9599 59.6791 88.5607C59.6791 88.1614 59.3599 88.3248 58.9697 88.9236C58.5795 89.5225 58.2603 90.3392 58.2603 90.7384ZM60.7539 89.8158C60.5042 90.0641 60.8147 90.1918 61.4436 90.1003C62.0732 90.0082 62.7922 89.7309 63.0425 89.4833C63.2922 89.2351 62.9818 89.1073 62.3529 89.1988C61.7232 89.291 61.0043 89.5683 60.7539 89.8158ZM62.0395 92.935C62.265 93.1586 62.6743 92.7557 62.9496 92.04C63.3464 91.0055 63.2629 90.9221 62.5396 91.6335C62.0388 92.1264 61.814 92.7122 62.0395 92.935ZM56.5581 95.6383C65.5164 111.734 68.33 121.92 68.9377 140.463C69.2832 150.977 70.1794 157.175 71.208 156.156C71.3874 155.977 71.2036 155.219 70.8002 154.47C69.8235 152.661 75.4309 145.268 85.1639 135.529C89.0786 131.612 91.2596 129.569 90.0106 130.987C88.7616 132.406 85.4904 136.344 82.7413 139.737C79.9921 143.131 77.4999 145.907 77.2027 145.907C76.9062 145.907 76.3886 146.205 76.0525 146.568C75.6982 146.952 75.8263 147.01 76.3578 146.707C77.7379 145.92 77.4926 146.62 74.9631 150.696C69.7027 159.173 68.6294 163.203 67.6425 178.192C66.9141 189.246 66.9192 194.206 67.666 203.301C68.5335 213.863 68.5094 214.731 67.3072 216.047C66.5978 216.825 65.5677 217.289 65.0178 217.08C64.4212 216.853 64.2183 217.02 64.5141 217.496C65.2895 218.738 61.7657 217.48 60.1396 215.933C57.9389 213.839 58.2859 192.873 60.7949 176.395C64.5668 151.628 64.9637 147.877 65.0259 136.471C65.0823 126.057 64.6408 121.449 62.9452 114.749C62.5257 113.093 62.6274 112.77 63.4386 113.187C64.0009 113.476 63.8428 113.214 63.0879 112.604C62.2767 111.95 61.899 111.021 62.164 110.335C62.4114 109.696 62.3434 109.339 62.0132 109.542C61.683 109.744 60.8227 108.046 60.1016 105.768C59.3804 103.49 57.6738 99.4224 56.3084 96.7272C53.3682 90.9228 53.5329 90.2034 56.5581 95.6383ZM113.147 93.3125C112.346 93.8504 112.642 93.9179 114.246 93.5622C116.938 92.9648 117.522 92.5496 115.649 92.5641C114.877 92.5706 113.751 92.9067 113.147 93.3125ZM130.087 100.054C129.482 100.778 129.522 101.022 130.242 101.022C130.773 101.022 131.207 100.587 131.207 100.054C131.207 99.5219 131.137 99.0863 131.052 99.0863C130.967 99.0863 130.533 99.5219 130.087 100.054ZM124.367 103.919C124.632 104.182 124.504 104.809 124.083 105.313C123.355 106.182 123.568 106.218 126.232 105.675C126.632 105.594 124.754 103.442 124.284 103.442C124.065 103.442 124.102 103.657 124.367 103.919ZM94.112 104.531C93.4824 105.283 93.4546 105.62 94.0227 105.62C94.4744 105.62 94.8441 105.258 94.8441 104.816C94.8441 104.374 95.3552 104.207 95.9804 104.445C96.632 104.693 96.9256 104.571 96.6693 104.16C96.0353 103.143 95.1685 103.269 94.112 104.531ZM116.372 110.804C114.983 112.353 114.984 112.354 116.625 111.355C117.531 110.803 118.272 110.103 118.272 109.8C118.272 108.925 117.865 109.14 116.372 110.804ZM119.248 111.758C119.248 112.339 119.529 112.643 119.871 112.434C120.212 112.224 120.303 111.748 120.071 111.377C119.48 110.427 119.248 110.534 119.248 111.758ZM98.5048 114.693C98.5048 114.807 98.9441 115.068 99.4807 115.273C100.018 115.477 100.457 115.216 100.457 114.693C100.457 114.171 100.018 113.91 99.4807 114.114C98.9441 114.319 98.5048 114.579 98.5048 114.693ZM92.1536 119.163C92.4186 119.426 92.226 120.161 91.726 120.797C90.9236 121.817 90.966 121.837 92.0906 120.963C93.2356 120.072 93.2518 118.686 92.1162 118.686C91.8717 118.686 91.8885 118.901 92.1536 119.163ZM65.0515 121.394C65.2375 122.101 65.4015 121.698 65.4161 120.501C65.4308 119.303 65.2792 118.725 65.0786 119.216C64.878 119.708 64.8656 120.688 65.0515 121.394ZM71.8904 152.622C71.5821 153.121 71.4686 153.529 71.6392 153.529C72.11 153.529 75.8087 148.093 75.8087 147.401C75.8087 146.879 73.7134 149.672 71.8904 152.622ZM65.0588 153.666C65.2924 154.244 65.4659 154.072 65.501 153.227C65.5325 152.462 65.3597 152.033 65.1167 152.274C64.8736 152.515 64.8473 153.142 65.0588 153.666ZM69.2195 156.433C69.6508 157.232 70.1676 157.885 70.369 157.885C70.5703 157.885 70.3829 157.232 69.9517 156.433C69.5204 155.635 69.0036 154.981 68.8022 154.981C68.6009 154.981 68.7883 155.635 69.2195 156.433ZM65.7741 192.91C65.9491 193.809 66.0919 193.073 66.0919 191.277C66.0919 189.48 65.9491 188.745 65.7741 189.643C65.5999 190.542 65.5999 192.011 65.7741 192.91ZM65.5589 215.398C65.5589 215.823 66.0238 215.753 66.6571 215.232C67.2611 214.734 67.7553 214.215 67.7553 214.077C67.7553 213.939 67.2611 214.013 66.6571 214.243C66.0531 214.473 65.5589 214.993 65.5589 215.398Z" fill="#8BBE2B"/>
</svg>
